<svg width="32" height="32" viewBox="0 0 32 32" fill="none" xmlns="http://www.w3.org/2000/svg">
<path d="M8.66675 16C9.92008 11.3867 15.2534 8 20.0001 8C24.7467 8 28.0801 11.3867 29.3334 16C28.0801 20.6267 24.7467 24 20.0001 24C15.2534 24 9.92008 20.6267 8.66675 16Z" stroke="#00CED1" stroke-width="2" stroke-linecap="round" stroke-linejoin="round"/>
<path d="M24 16V16.6667" stroke="#00CED1" stroke-width="2" stroke-linecap="round" stroke-linejoin="round"/>
<path d="M21.3334 23.9067C19.599 21.6357 18.6594 18.8575 18.6594 16C18.6594 13.1425 19.599 10.3643 21.3334 8.09333" stroke="#00CED1" stroke-width="2" stroke-linecap="round" stroke-linejoin="round"/>
<path d="M9.33323 14.2267C9.33323 10.6667 7.43989 7.96 3.63989 7.33333C2.30656 9.33333 2.30656 14 3.94656 16C2.29323 18 2.29323 22.6667 3.63989 24.6667C7.43989 24.04 9.33323 21.3333 9.33323 17.7733" stroke="#00CED1" stroke-width="2" stroke-linecap="round" stroke-linejoin="round"/>
<path d="M13.9467 9.68C13.6001 7.84 12.2267 5.65333 10.6667 4H18.4001C19.0327 3.99766 19.6456 4.22032 20.1292 4.62822C20.6129 5.03612 20.9357 5.60267 21.0401 6.22667L21.3467 8.09333" stroke="#00CED1" stroke-width="2" stroke-linecap="round" stroke-linejoin="round"/>
<path d="M21.3467 23.9067L21.0401 25.7733C20.9357 26.3973 20.6129 26.9639 20.1292 27.3718C19.6456 27.7797 19.0327 28.0023 18.4001 28H12.6667C13.9585 26.5353 14.6658 24.6462 14.6534 22.6933" stroke="#00CED1" stroke-width="2" stroke-linecap="round" stroke-linejoin="round"/>
</svg>
