<svg width="32" height="32" viewBox="0 0 32 32" fill="none" xmlns="http://www.w3.org/2000/svg">
<path d="M9.33333 21.7333C12.2667 21.7333 14.6667 19.2933 14.6667 16.3333C14.6667 14.7867 13.9067 13.32 12.3867 12.08C10.8667 10.84 9.72 9 9.33333 7.06667C8.94667 9 7.81333 10.8533 6.28 12.08C4.74667 13.3067 4 14.8 4 16.3333C4 19.2933 6.4 21.7333 9.33333 21.7333Z" stroke="#00CED1" stroke-width="2" stroke-linecap="round" stroke-linejoin="round"/>
<path d="M16.7468 8.8C17.6638 7.33483 18.3139 5.71873 18.6668 4.02667C19.3335 7.36 21.3335 10.56 24.0001 12.6933C26.6668 14.8267 28.0001 17.36 28.0001 20.0267C28.0077 21.8697 27.4679 23.6735 26.4492 25.2095C25.4304 26.7454 23.9785 27.9442 22.2776 28.654C20.5767 29.3638 18.7033 29.5525 16.895 29.1964C15.0867 28.8402 13.4248 27.9551 12.1201 26.6533" stroke="#00CED1" stroke-width="2" stroke-linecap="round" stroke-linejoin="round"/>
</svg>
