<svg width="20" height="20" viewBox="0 0 20 20" fill="none" xmlns="http://www.w3.org/2000/svg">
<path fill-rule="evenodd" clip-rule="evenodd" d="M19.2597 3.7454C19.5247 2.45393 18.2562 1.38068 17.0264 1.85583L1.95208 7.68C0.578759 8.2106 0.517567 10.131 1.85431 10.7479L5.13708 12.2631L6.69874 17.7288C6.77985 18.0127 7.00514 18.2326 7.29097 18.3067C7.57679 18.3807 7.88048 18.298 8.08926 18.0892L10.4948 15.6836L13.8646 18.2109C14.8427 18.9445 16.2516 18.4102 16.4972 17.2124L19.2597 3.7454ZM2.55274 9.23466L17.6271 3.41049L14.8646 16.8776L10.9167 13.9166C10.5849 13.6677 10.1207 13.7007 9.82741 13.994L8.79708 15.0243L9.10666 13.3217L15.1726 7.25585C15.4678 6.96064 15.499 6.49254 15.2456 6.16077C14.9922 5.82898 14.5324 5.73593 14.1699 5.94306L5.79269 10.73L2.55274 9.23466ZM6.81412 12.0659L7.31944 13.8346L7.51344 12.7675C7.54377 12.6007 7.62423 12.4472 7.74409 12.3273L9.59399 10.4775L6.81412 12.0659Z" fill="#00CED1"/>
</svg>
