<svg width="28" height="28" viewBox="0 0 28 28" fill="none" xmlns="http://www.w3.org/2000/svg">
<path d="M24.5 8.75C22.9921 8.74829 21.5465 8.14853 20.4802 7.08228C19.414 6.01604 18.8142 4.57039 18.8125 3.0625C18.8125 2.94647 18.7664 2.83519 18.6844 2.75315C18.6023 2.6711 18.491 2.62501 18.375 2.625H14C13.884 2.62501 13.7727 2.6711 13.6906 2.75315C13.6086 2.83519 13.5625 2.94647 13.5625 3.0625V17.0625C13.5624 17.5322 13.4362 17.9933 13.1971 18.3977C12.958 18.802 12.6148 19.1348 12.2033 19.3613C11.7918 19.5878 11.327 19.6998 10.8575 19.6855C10.388 19.6712 9.93091 19.5311 9.53395 19.2799C9.137 19.0288 8.81472 18.6757 8.60072 18.2575C8.38672 17.8394 8.28885 17.3715 8.31733 16.9026C8.3458 16.4337 8.49956 15.9811 8.76258 15.5919C9.0256 15.2027 9.38824 14.8912 9.81267 14.6899C9.88741 14.6544 9.95055 14.5984 9.99477 14.5285C10.039 14.4585 10.0624 14.3775 10.0624 14.2947L10.0625 9.74047C10.0625 9.67652 10.0485 9.61334 10.0215 9.55539C9.9944 9.49745 9.95498 9.44613 9.90596 9.40507C9.85693 9.364 9.7995 9.33419 9.73771 9.31772C9.67592 9.30125 9.61127 9.29853 9.54831 9.30975C8.07356 9.57391 6.70476 10.2533 5.60255 11.2681C4.50034 12.2828 3.71046 13.591 3.32562 15.0389C2.94077 16.4869 2.97692 18.0146 3.42983 19.4427C3.88273 20.8708 4.73361 22.1401 5.88258 23.1016C7.03156 24.0632 8.43096 24.677 9.91655 24.8711C11.4021 25.0652 12.9123 24.8316 14.2697 24.1975C15.6272 23.5635 16.7756 22.5554 17.5803 21.2916C18.3849 20.0278 18.8124 18.5607 18.8125 17.0625L18.8124 12.4071C20.5247 13.4534 22.4934 14.0048 24.5 14C24.616 14 24.7273 13.9539 24.8094 13.8719C24.8914 13.7898 24.9375 13.6785 24.9375 13.5625V9.1875C24.9375 9.07147 24.8914 8.96019 24.8094 8.87815C24.7273 8.7961 24.616 8.75001 24.5 8.75ZM24.0625 13.1157C22.1067 13.0356 20.2177 12.3822 18.6304 11.2367C18.5651 11.1897 18.488 11.1617 18.4077 11.1556C18.3275 11.1496 18.2471 11.1658 18.1754 11.2025C18.1038 11.2393 18.0436 11.295 18.0017 11.3637C17.9597 11.4324 17.9375 11.5114 17.9374 11.5919L17.9375 17.0625C17.9371 18.3716 17.5696 19.6544 16.8767 20.7652C16.1838 21.8759 15.1933 22.7701 14.0177 23.3462C12.8421 23.9222 11.5286 24.1571 10.2262 24.0241C8.92383 23.891 7.68487 23.3955 6.65003 22.5936C5.61518 21.7918 4.82594 20.7158 4.37193 19.4879C3.91792 18.26 3.81734 16.9294 4.08161 15.6472C4.34589 14.365 4.96443 13.1826 5.86698 12.2344C6.76954 11.2861 7.91993 10.6099 9.1875 10.2826L9.18745 14.031C8.65533 14.3381 8.21345 14.78 7.90621 15.3121C7.59897 15.8441 7.4372 16.4477 7.43716 17.0621C7.43712 17.6765 7.59881 18.2801 7.90599 18.8122C8.21316 19.3444 8.65499 19.7862 9.18707 20.0935C9.71915 20.4007 10.3227 20.5625 10.9371 20.5625C11.5515 20.5625 12.1551 20.4008 12.6873 20.0937C13.2194 19.7865 13.6612 19.3447 13.9685 18.8126C14.2757 18.2805 14.4375 17.6769 14.4375 17.0625V3.5H17.9519C18.06 5.085 18.7385 6.57721 19.8619 7.70059C20.9853 8.82396 22.4775 9.50246 24.0625 9.61058V13.1157Z" fill="#00CED1" stroke="#00CED1" stroke-width="0.77"/>
</svg>
