<svg width="32" height="32" viewBox="0 0 32 32" fill="none" xmlns="http://www.w3.org/2000/svg">
<path d="M18.6667 24V7.99999C18.6667 7.29275 18.3858 6.61447 17.8857 6.11438C17.3856 5.61428 16.7073 5.33333 16.0001 5.33333H5.33341C4.62617 5.33333 3.94789 5.61428 3.4478 6.11438C2.9477 6.61447 2.66675 7.29275 2.66675 7.99999V22.6667C2.66675 23.0203 2.80722 23.3594 3.05727 23.6095C3.30732 23.8595 3.64646 24 4.00008 24H6.66675" stroke="#00CED1" stroke-width="2" stroke-linecap="round" stroke-linejoin="round"/>
<path d="M20 24H12" stroke="#00CED1" stroke-width="2" stroke-linecap="round" stroke-linejoin="round"/>
<path d="M25.3334 24H28.0001C28.3537 24 28.6928 23.8595 28.9429 23.6095C29.1929 23.3594 29.3334 23.0203 29.3334 22.6667V17.8C29.3329 17.4974 29.2294 17.204 29.0401 16.968L24.4001 11.168C24.2754 11.0118 24.1172 10.8857 23.9372 10.7989C23.7571 10.7122 23.5599 10.667 23.3601 10.6667H18.6667" stroke="#00CED1" stroke-width="2" stroke-linecap="round" stroke-linejoin="round"/>
<path d="M22.6667 26.6667C24.1394 26.6667 25.3333 25.4728 25.3333 24C25.3333 22.5272 24.1394 21.3333 22.6667 21.3333C21.1939 21.3333 20 22.5272 20 24C20 25.4728 21.1939 26.6667 22.6667 26.6667Z" stroke="#00CED1" stroke-width="2" stroke-linecap="round" stroke-linejoin="round"/>
<path d="M9.33341 26.6667C10.8062 26.6667 12.0001 25.4728 12.0001 24C12.0001 22.5272 10.8062 21.3333 9.33341 21.3333C7.86066 21.3333 6.66675 22.5272 6.66675 24C6.66675 25.4728 7.86066 26.6667 9.33341 26.6667Z" stroke="#00CED1" stroke-width="2" stroke-linecap="round" stroke-linejoin="round"/>
</svg>
